<svg xmlns="http://www.w3.org/2000/svg" width="200mm" height="200mm" viewBox="0 0 200 200"><path fill="#e18d00" d="M-21.167-22.25h232.833v232.833H-21.167z"/><path d="M90.16 48.689c0-6.536 1.43-8.573 3.678-10.425-18.388 2.249-39.502 8.996-46.646 17.568-1.429 2.038-2.46 5.504-2.46 9.816 0 27.385 28.257 89.297 48.71 89.297 9.604 0 25.743-15.742 38.814-36.777-1.852.609-3.07.609-4.895.609-15.134 0-37.2-52.52-37.2-70.088zm32.491-12.277c-7.964 0-11.033 1.429-11.033 9.604 0 17.569 14.235 52.52 26.908 52.52 6.959 0 20.85-26.379 20.85-48.233 0-10.822-17.728-13.891-36.725-13.891z" fill="#fff"/></svg>